<?xml version="1.0" standalone="no"?>
<!DOCTYPE svg PUBLIC "-//W3C//DTD SVG 20010904//EN"
 "http://www.w3.org/TR/2001/REC-SVG-20010904/DTD/svg10.dtd">
<svg version="1.0" xmlns="http://www.w3.org/2000/svg"
 width="512.000000pt" height="512.000000pt" viewBox="0 0 512.000000 512.000000"
 preserveAspectRatio="xMidYMid meet">
<metadata>
Created by potrace 1.14, written by Peter Selinger 2001-2017
</metadata>
<g transform="translate(0.000000,512.000000) scale(0.100000,-0.100000)"
fill="#000000" stroke="none">
<path d="M0 2560 l0 -2560 2560 0 2560 0 0 2560 0 2560 -2560 0 -2560 0 0
-2560z m4180 0 l0 -2050 -1620 0 -1620 0 0 2050 0 2050 1620 0 1620 0 0 -2050z"/>
<path d="M1324 3917 c-2 -7 -3 -69 -2 -138 l3 -124 124 -3 c82 -2 128 1 137 9
19 15 20 143 2 137 -8 -3 -15 -28 -18 -59 l-5 -54 -107 -3 -108 -3 0 110 0
110 118 3 c159 4 150 22 -13 26 -97 2 -127 0 -131 -11z"/>
<path d="M1554 3859 c-10 -12 -36 -35 -57 -51 l-38 -31 -25 24 c-22 21 -26 22
-40 7 -15 -15 -13 -20 22 -57 l39 -41 83 71 c65 57 80 75 71 85 -16 20 -33 17
-55 -7z"/>
<path d="M1770 3775 c-6 -8 -10 -22 -8 -32 3 -14 13 -18 53 -18 40 0 50 4 53
18 5 27 -17 47 -53 47 -18 0 -38 -7 -45 -15z"/>
<path d="M1980 3775 c-6 -8 -10 -22 -8 -32 3 -15 15 -19 67 -21 60 -3 80 5 81
30 1 35 -114 54 -140 23z"/>
<path d="M2226 3774 c-10 -9 -15 -23 -12 -31 3 -8 6 -17 6 -19 0 -2 29 -4 65
-4 70 0 90 14 68 49 -15 24 -105 27 -127 5z"/>
<path d="M2470 3775 c-6 -8 -10 -22 -8 -32 3 -15 15 -19 71 -21 73 -3 89 8 67
47 -9 17 -20 21 -64 21 -35 0 -58 -5 -66 -15z"/>
<path d="M2720 3775 c-6 -8 -10 -22 -8 -32 3 -15 14 -18 68 -18 54 0 65 3 68
18 6 31 -17 47 -68 47 -29 0 -52 -6 -60 -15z"/>
<path d="M2961 3771 c-21 -38 -4 -51 65 -51 51 0 66 4 71 16 12 32 -11 49 -70
52 -47 2 -57 0 -66 -17z"/>
<path d="M3210 3775 c-6 -8 -10 -22 -8 -32 3 -15 15 -19 67 -21 60 -3 80 5 81
30 1 35 -114 54 -140 23z"/>
<path d="M3456 3774 c-30 -30 -13 -53 43 -59 73 -8 116 26 79 63 -18 18 -103
15 -122 -4z"/>
<path d="M3700 3775 c-29 -35 14 -69 70 -55 52 13 31 70 -25 70 -18 0 -38 -7
-45 -15z"/>
<path d="M1324 3517 c-2 -7 -3 -69 -2 -138 l3 -124 124 -3 c82 -2 128 1 137 9
19 15 20 143 2 137 -8 -3 -15 -28 -18 -59 l-5 -54 -107 -3 -108 -3 0 110 0
110 118 3 c159 4 150 22 -13 26 -97 2 -127 0 -131 -11z"/>
<path d="M1554 3459 c-10 -12 -36 -35 -57 -51 l-38 -31 -25 24 c-22 21 -26 22
-40 7 -15 -15 -13 -20 22 -57 l39 -41 83 71 c65 57 80 75 71 85 -16 20 -33 17
-55 -7z"/>
<path d="M1770 3375 c-6 -8 -10 -22 -8 -32 3 -14 13 -18 53 -18 40 0 50 4 53
18 5 27 -17 47 -53 47 -18 0 -38 -7 -45 -15z"/>
<path d="M1980 3375 c-6 -8 -10 -22 -8 -32 3 -15 15 -19 67 -21 60 -3 80 5 81
30 1 35 -114 54 -140 23z"/>
<path d="M2226 3374 c-10 -9 -15 -23 -12 -31 3 -8 6 -17 6 -19 0 -2 29 -4 65
-4 70 0 90 14 68 49 -15 24 -105 27 -127 5z"/>
<path d="M2470 3375 c-6 -8 -10 -22 -8 -32 3 -15 14 -18 73 -18 59 0 70 3 73
18 6 32 -17 47 -73 47 -34 0 -57 -5 -65 -15z"/>
<path d="M2720 3375 c-6 -8 -10 -22 -8 -32 3 -15 14 -18 68 -18 54 0 65 3 68
18 6 31 -17 47 -68 47 -29 0 -52 -6 -60 -15z"/>
<path d="M2961 3371 c-21 -38 -4 -51 65 -51 51 0 66 4 71 16 12 32 -11 49 -70
52 -47 2 -57 0 -66 -17z"/>
<path d="M3210 3375 c-6 -8 -10 -22 -8 -32 3 -15 15 -19 67 -21 60 -3 80 5 81
30 1 35 -114 54 -140 23z"/>
<path d="M3456 3374 c-10 -9 -15 -23 -12 -31 3 -8 6 -17 6 -19 0 -2 29 -4 65
-4 70 0 90 14 68 49 -15 24 -105 27 -127 5z"/>
<path d="M3700 3375 c-6 -8 -10 -22 -8 -32 3 -14 13 -18 53 -18 40 0 50 4 53
18 5 27 -17 47 -53 47 -18 0 -38 -7 -45 -15z"/>
<path d="M1322 2978 l3 -133 129 -3 c97 -2 131 1 138 10 13 22 10 140 -4 136
-8 -3 -14 -27 -16 -61 l-3 -57 -110 0 -110 0 3 108 3 107 110 3 c164 4 157 22
-8 22 l-138 0 3 -132z"/>
<path d="M1544 3039 c-16 -17 -42 -40 -57 -51 l-28 -20 -25 23 c-23 22 -25 22
-41 6 -17 -16 -15 -20 22 -57 l40 -40 83 71 c67 57 80 74 71 85 -17 21 -32 17
-65 -17z"/>
<path d="M1772 2968 c-31 -31 -2 -71 49 -66 39 4 59 30 43 56 -13 21 -74 28
-92 10z"/>
<path d="M1982 2968 c-7 -7 -12 -19 -12 -28 0 -28 22 -40 71 -40 45 0 79 17
79 40 0 5 -7 16 -16 24 -19 19 -104 22 -122 4z"/>
<path d="M2226 2965 c-9 -9 -16 -20 -16 -25 0 -25 34 -41 83 -38 57 3 80 25
61 56 -15 24 -105 29 -128 7z"/>
<path d="M2476 2964 c-36 -36 -10 -64 59 -64 28 0 56 5 63 12 31 31 -2 68 -63
68 -26 0 -50 -6 -59 -16z"/>
<path d="M2722 2968 c-33 -33 -4 -68 54 -68 23 0 49 3 58 6 19 7 21 45 4 62
-16 16 -100 16 -116 0z"/>
<path d="M2966 2965 c-19 -20 -20 -26 -3 -49 10 -13 24 -17 66 -14 61 3 85 24
65 56 -15 24 -105 29 -128 7z"/>
<path d="M3218 2969 c-21 -12 -23 -40 -6 -57 18 -18 103 -15 122 4 9 8 16 19
16 24 0 34 -90 54 -132 29z"/>
<path d="M3456 2965 c-19 -20 -20 -26 -3 -49 10 -13 24 -17 66 -14 61 3 85 24
65 56 -15 24 -105 29 -128 7z"/>
<path d="M3708 2969 c-22 -12 -23 -42 -4 -58 20 -17 77 -10 90 12 24 38 -41
73 -86 46z"/>
<path d="M1492 2192 c-10 -7 -12 -131 -10 -588 l3 -579 1075 0 1075 0 3 579
c2 457 0 581 -10 588 -17 10 -2119 10 -2136 0z m1458 -506 c0 -160 3 -308 6
-328 l7 -38 -47 0 c-43 0 -46 2 -46 27 l0 26 -23 -21 c-30 -29 -84 -44 -122
-36 -79 17 -135 103 -135 209 0 80 13 122 52 169 41 50 98 76 171 76 l57 0 0
103 c0 57 2 106 5 108 2 3 20 3 40 1 l35 -4 0 -292z m-862 217 l3 -33 -85 0
-86 0 0 -275 0 -275 -45 0 -45 0 0 275 0 275 -85 0 -85 0 0 28 c0 16 3 32 7
36 4 3 99 5 212 4 l206 -3 3 -32z m356 -160 c88 -62 119 -208 67 -316 -61
-126 -220 -153 -316 -53 -71 73 -87 198 -39 294 40 81 101 115 193 107 39 -3
66 -12 95 -32z m861 26 c79 -22 145 -124 145 -224 0 -104 -67 -202 -154 -224
-143 -36 -255 66 -256 230 0 96 36 163 109 201 58 30 94 34 156 17z"/>
<path d="M2780 1703 c-70 -14 -110 -77 -110 -175 0 -99 46 -157 114 -144 18 4
45 19 60 34 26 29 27 29 24 158 l-3 129 -30 1 c-16 1 -41 0 -55 -3z"/>
<path d="M2258 1687 c-15 -12 -32 -35 -38 -50 -14 -40 -12 -142 4 -181 43
-104 178 -102 220 4 29 73 13 171 -36 221 -38 38 -108 41 -150 6z"/>
<path d="M3174 1692 c-55 -44 -71 -158 -35 -238 24 -52 55 -74 106 -74 51 0
82 22 106 74 34 74 19 177 -31 228 -24 23 -37 28 -77 28 -30 0 -56 -7 -69 -18z"/>
</g>
</svg>
